<svg xmlns="http://www.w3.org/2000/svg" viewBox="0 0 700 574" role="img" aria-label="parse" font-family="-apple-system,Segoe UI,Helvetica,Arial,sans-serif" font-size="11"><text x="170" y="14" font-size="12" font-weight="600">parse</text><rect x="240" y="5" width="10" height="10" fill="#2F7DC1"/><text x="254" y="14">CangjieXML</text><rect x="336" y="5" width="10" height="10" fill="#7AAE5E"/><text x="350" y="14">tinyxml2</text><rect x="418" y="5" width="10" height="10" fill="#D08C3F"/><text x="432" y="14">Python xml.etree</text><rect x="170" y="32" width="460" height="526" fill="#fafafa" stroke="#e0e0e0"/><text x="162" y="59.0" text-anchor="end" font-family="ui-monospace,Menlo,Consolas,monospace">catalog_small.xml</text><rect x="170" y="32" width="460.00" height="14" fill="#2F7DC1"/><text x="634.00" y="43" fill="#333">0.1979</text><rect x="170" y="48" width="353.16" height="14" fill="#7AAE5E"/><text x="527.16" y="59" fill="#333">0.1520</text><rect x="170" y="64" width="426.87" height="14" fill="#D08C3F"/><text x="600.87" y="75" fill="#333">0.1837</text><text x="162" y="119.0" text-anchor="end" font-family="ui-monospace,Menlo,Consolas,monospace">catalog_medium.xml</text><rect x="170" y="92" width="344.84" height="14" fill="#2F7DC1"/><text x="518.84" y="103" fill="#333">9.543</text><rect x="170" y="108" width="299.59" height="14" fill="#7AAE5E"/><text x="473.59" y="119" fill="#333">8.291</text><rect x="170" y="124" width="460.00" height="14" fill="#D08C3F"/><text x="634.00" y="135" fill="#333">12.730</text><text x="162" y="179.0" text-anchor="end" font-family="ui-monospace,Menlo,Consolas,monospace">catalog_large.xml</text><rect x="170" y="152" width="392.43" height="14" fill="#2F7DC1"/><text x="566.43" y="163" fill="#333">74.550</text><rect x="170" y="168" width="291.68" height="14" fill="#7AAE5E"/><text x="465.68" y="179" fill="#333">55.411</text><rect x="170" y="184" width="460.00" height="14" fill="#D08C3F"/><text x="634.00" y="195" fill="#333">87.387</text><text x="162" y="239.0" text-anchor="end" font-family="ui-monospace,Menlo,Consolas,monospace">config_small.xml</text><rect x="170" y="212" width="252.83" height="14" fill="#2F7DC1"/><text x="426.83" y="223" fill="#333">0.0528</text><rect x="170" y="228" width="145.18" height="14" fill="#7AAE5E"/><text x="319.18" y="239" fill="#333">0.0303</text><rect x="170" y="244" width="460.00" height="14" fill="#D08C3F"/><text x="634.00" y="255" fill="#333">0.0961</text><text x="162" y="299.0" text-anchor="end" font-family="ui-monospace,Menlo,Consolas,monospace">config_medium.xml</text><rect x="170" y="272" width="239.28" height="14" fill="#2F7DC1"/><text x="413.28" y="283" fill="#333">2.422</text><rect x="170" y="288" width="148.87" height="14" fill="#7AAE5E"/><text x="322.87" y="299" fill="#333">1.507</text><rect x="170" y="304" width="460.00" height="14" fill="#D08C3F"/><text x="634.00" y="315" fill="#333">4.656</text><text x="162" y="359.0" text-anchor="end" font-family="ui-monospace,Menlo,Consolas,monospace">config_large.xml</text><rect x="170" y="332" width="259.33" height="14" fill="#2F7DC1"/><text x="433.33" y="343" fill="#333">20.007</text><rect x="170" y="348" width="135.04" height="14" fill="#7AAE5E"/><text x="309.04" y="359" fill="#333">10.418</text><rect x="170" y="364" width="460.00" height="14" fill="#D08C3F"/><text x="634.00" y="375" fill="#333">35.489</text><text x="162" y="419.0" text-anchor="end" font-family="ui-monospace,Menlo,Consolas,monospace">deep_small.xml</text><rect x="170" y="392" width="351.53" height="14" fill="#2F7DC1"/><text x="525.53" y="403" fill="#333">0.0192</text><rect x="170" y="408" width="180.16" height="14" fill="#7AAE5E"/><text x="354.16" y="419" fill="#333">0.0098</text><rect x="170" y="424" width="460.00" height="14" fill="#D08C3F"/><text x="634.00" y="435" fill="#333">0.0251</text><text x="162" y="479.0" text-anchor="end" font-family="ui-monospace,Menlo,Consolas,monospace">deep_medium.xml</text><rect x="170" y="452" width="347.26" height="14" fill="#2F7DC1"/><text x="521.26" y="463" fill="#333">0.0714</text><rect x="170" y="468" width="281.64" height="14" fill="#7AAE5E"/><text x="455.64" y="479" fill="#333">0.0579</text><rect x="170" y="484" width="460.00" height="14" fill="#D08C3F"/><text x="634.00" y="495" fill="#333">0.0946</text><text x="162" y="539.0" text-anchor="end" font-family="ui-monospace,Menlo,Consolas,monospace">deep_large.xml</text><rect x="170" y="512" width="271.55" height="14" fill="#2F7DC1"/><text x="445.55" y="523" fill="#333">0.1433</text><rect x="170" y="528" width="307.69" height="14" fill="#7AAE5E"/><text x="481.69" y="539" fill="#333">0.1624</text><rect x="170" y="544" width="460.00" height="14" fill="#D08C3F"/><text x="634.00" y="555" fill="#333">0.2428</text></svg>