<svg xmlns="http://www.w3.org/2000/svg" viewBox="0 0 700 574" role="img" aria-label="parse" font-family="-apple-system,Segoe UI,Helvetica,Arial,sans-serif" font-size="11"><text x="170" y="14" font-size="12" font-weight="600">parse</text><rect x="240" y="5" width="10" height="10" fill="#2F7DC1"/><text x="254" y="14">CangjieXML</text><rect x="336" y="5" width="10" height="10" fill="#7AAE5E"/><text x="350" y="14">tinyxml2</text><rect x="418" y="5" width="10" height="10" fill="#D08C3F"/><text x="432" y="14">Python xml.etree</text><rect x="170" y="32" width="460" height="526" fill="#fafafa" stroke="#e0e0e0"/><text x="162" y="59.0" text-anchor="end" font-family="ui-monospace,Menlo,Consolas,monospace">catalog_small.xml</text><rect x="170" y="32" width="418.50" height="14" fill="#2F7DC1"/><text x="592.50" y="43" fill="#333">0.2424</text><rect x="170" y="48" width="327.73" height="14" fill="#7AAE5E"/><text x="501.73" y="59" fill="#333">0.1899</text><rect x="170" y="64" width="460.00" height="14" fill="#D08C3F"/><text x="634.00" y="75" fill="#333">0.2665</text><text x="162" y="119.0" text-anchor="end" font-family="ui-monospace,Menlo,Consolas,monospace">catalog_medium.xml</text><rect x="170" y="92" width="349.52" height="14" fill="#2F7DC1"/><text x="523.52" y="103" fill="#333">12.564</text><rect x="170" y="108" width="275.42" height="14" fill="#7AAE5E"/><text x="449.42" y="119" fill="#333">9.900</text><rect x="170" y="124" width="460.00" height="14" fill="#D08C3F"/><text x="634.00" y="135" fill="#333">16.535</text><text x="162" y="179.0" text-anchor="end" font-family="ui-monospace,Menlo,Consolas,monospace">catalog_large.xml</text><rect x="170" y="152" width="395.65" height="14" fill="#2F7DC1"/><text x="569.65" y="163" fill="#333">93.433</text><rect x="170" y="168" width="266.92" height="14" fill="#7AAE5E"/><text x="440.92" y="179" fill="#333">63.032</text><rect x="170" y="184" width="460.00" height="14" fill="#D08C3F"/><text x="634.00" y="195" fill="#333">108.6</text><text x="162" y="239.0" text-anchor="end" font-family="ui-monospace,Menlo,Consolas,monospace">config_small.xml</text><rect x="170" y="212" width="198.06" height="14" fill="#2F7DC1"/><text x="372.06" y="223" fill="#333">0.0561</text><rect x="170" y="228" width="135.73" height="14" fill="#7AAE5E"/><text x="309.73" y="239" fill="#333">0.0385</text><rect x="170" y="244" width="460.00" height="14" fill="#D08C3F"/><text x="634.00" y="255" fill="#333">0.1303</text><text x="162" y="299.0" text-anchor="end" font-family="ui-monospace,Menlo,Consolas,monospace">config_medium.xml</text><rect x="170" y="272" width="239.47" height="14" fill="#2F7DC1"/><text x="413.47" y="283" fill="#333">3.465</text><rect x="170" y="288" width="132.09" height="14" fill="#7AAE5E"/><text x="306.09" y="299" fill="#333">1.912</text><rect x="170" y="304" width="460.00" height="14" fill="#D08C3F"/><text x="634.00" y="315" fill="#333">6.657</text><text x="162" y="359.0" text-anchor="end" font-family="ui-monospace,Menlo,Consolas,monospace">config_large.xml</text><rect x="170" y="332" width="248.72" height="14" fill="#2F7DC1"/><text x="422.72" y="343" fill="#333">25.623</text><rect x="170" y="348" width="120.37" height="14" fill="#7AAE5E"/><text x="294.37" y="359" fill="#333">12.401</text><rect x="170" y="364" width="460.00" height="14" fill="#D08C3F"/><text x="634.00" y="375" fill="#333">47.390</text><text x="162" y="419.0" text-anchor="end" font-family="ui-monospace,Menlo,Consolas,monospace">deep_small.xml</text><rect x="170" y="392" width="173.03" height="14" fill="#2F7DC1"/><text x="347.03" y="403" fill="#333">0.0134</text><rect x="170" y="408" width="164.26" height="14" fill="#7AAE5E"/><text x="338.26" y="419" fill="#333">0.0128</text><rect x="170" y="424" width="460.00" height="14" fill="#D08C3F"/><text x="634.00" y="435" fill="#333">0.0357</text><text x="162" y="479.0" text-anchor="end" font-family="ui-monospace,Menlo,Consolas,monospace">deep_medium.xml</text><rect x="170" y="452" width="171.35" height="14" fill="#2F7DC1"/><text x="345.35" y="463" fill="#333">0.0506</text><rect x="170" y="468" width="240.00" height="14" fill="#7AAE5E"/><text x="414.00" y="479" fill="#333">0.0709</text><rect x="170" y="484" width="460.00" height="14" fill="#D08C3F"/><text x="634.00" y="495" fill="#333">0.1359</text><text x="162" y="539.0" text-anchor="end" font-family="ui-monospace,Menlo,Consolas,monospace">deep_large.xml</text><rect x="170" y="512" width="151.36" height="14" fill="#2F7DC1"/><text x="325.36" y="523" fill="#333">0.1058</text><rect x="170" y="528" width="278.22" height="14" fill="#7AAE5E"/><text x="452.22" y="539" fill="#333">0.1945</text><rect x="170" y="544" width="460.00" height="14" fill="#D08C3F"/><text x="634.00" y="555" fill="#333">0.3216</text></svg>