<svg xmlns="http://www.w3.org/2000/svg" viewBox="0 0 700 574" role="img" aria-label="roundtrip" font-family="-apple-system,Segoe UI,Helvetica,Arial,sans-serif" font-size="11"><text x="170" y="14" font-size="12" font-weight="600">roundtrip</text><rect x="240" y="5" width="10" height="10" fill="#2F7DC1"/><text x="254" y="14">CangjieXML</text><rect x="336" y="5" width="10" height="10" fill="#7AAE5E"/><text x="350" y="14">tinyxml2</text><rect x="418" y="5" width="10" height="10" fill="#D08C3F"/><text x="432" y="14">Python xml.etree</text><rect x="170" y="32" width="460" height="526" fill="#fafafa" stroke="#e0e0e0"/><text x="162" y="59.0" text-anchor="end" font-family="ui-monospace,Menlo,Consolas,monospace">catalog_small.xml</text><rect x="170" y="32" width="106.31" height="14" fill="#2F7DC1"/><text x="280.31" y="43" fill="#333">0.3114</text><rect x="170" y="48" width="88.78" height="14" fill="#7AAE5E"/><text x="262.78" y="59" fill="#333">0.2601</text><rect x="170" y="64" width="460.00" height="14" fill="#D08C3F"/><text x="634.00" y="75" fill="#333">1.348</text><text x="162" y="119.0" text-anchor="end" font-family="ui-monospace,Menlo,Consolas,monospace">catalog_medium.xml</text><rect x="170" y="92" width="143.17" height="14" fill="#2F7DC1"/><text x="317.17" y="103" fill="#333">20.236</text><rect x="170" y="108" width="94.29" height="14" fill="#7AAE5E"/><text x="268.29" y="119" fill="#333">13.328</text><rect x="170" y="124" width="460.00" height="14" fill="#D08C3F"/><text x="634.00" y="135" fill="#333">65.018</text><text x="162" y="179.0" text-anchor="end" font-family="ui-monospace,Menlo,Consolas,monospace">catalog_large.xml</text><rect x="170" y="152" width="210.25" height="14" fill="#2F7DC1"/><text x="384.25" y="163" fill="#333">190.6</text><rect x="170" y="168" width="89.71" height="14" fill="#7AAE5E"/><text x="263.71" y="179" fill="#333">81.341</text><rect x="170" y="184" width="460.00" height="14" fill="#D08C3F"/><text x="634.00" y="195" fill="#333">417.1</text><text x="162" y="239.0" text-anchor="end" font-family="ui-monospace,Menlo,Consolas,monospace">config_small.xml</text><rect x="170" y="212" width="98.07" height="14" fill="#2F7DC1"/><text x="272.07" y="223" fill="#333">0.1191</text><rect x="170" y="228" width="48.63" height="14" fill="#7AAE5E"/><text x="222.63" y="239" fill="#333">0.0591</text><rect x="170" y="244" width="460.00" height="14" fill="#D08C3F"/><text x="634.00" y="255" fill="#333">0.5588</text><text x="162" y="299.0" text-anchor="end" font-family="ui-monospace,Menlo,Consolas,monospace">config_medium.xml</text><rect x="170" y="272" width="127.16" height="14" fill="#2F7DC1"/><text x="301.16" y="283" fill="#333">7.082</text><rect x="170" y="288" width="52.45" height="14" fill="#7AAE5E"/><text x="226.45" y="299" fill="#333">2.921</text><rect x="170" y="304" width="460.00" height="14" fill="#D08C3F"/><text x="634.00" y="315" fill="#333">25.619</text><text x="162" y="359.0" text-anchor="end" font-family="ui-monospace,Menlo,Consolas,monospace">config_large.xml</text><rect x="170" y="332" width="138.94" height="14" fill="#2F7DC1"/><text x="312.94" y="343" fill="#333">47.957</text><rect x="170" y="348" width="72.49" height="14" fill="#7AAE5E"/><text x="246.49" y="359" fill="#333">25.019</text><rect x="170" y="364" width="460.00" height="14" fill="#D08C3F"/><text x="634.00" y="375" fill="#333">158.8</text><text x="162" y="419.0" text-anchor="end" font-family="ui-monospace,Menlo,Consolas,monospace">deep_small.xml</text><rect x="170" y="392" width="72.59" height="14" fill="#2F7DC1"/><text x="246.59" y="403" fill="#333">0.0280</text><rect x="170" y="408" width="45.64" height="14" fill="#7AAE5E"/><text x="219.64" y="419" fill="#333">0.0176</text><rect x="170" y="424" width="460.00" height="14" fill="#D08C3F"/><text x="634.00" y="435" fill="#333">0.1773</text><text x="162" y="479.0" text-anchor="end" font-family="ui-monospace,Menlo,Consolas,monospace">deep_medium.xml</text><rect x="170" y="452" width="56.50" height="14" fill="#2F7DC1"/><text x="230.50" y="463" fill="#333">0.1094</text><rect x="170" y="468" width="47.39" height="14" fill="#7AAE5E"/><text x="221.39" y="479" fill="#333">0.0917</text><rect x="170" y="484" width="460.00" height="14" fill="#D08C3F"/><text x="634.00" y="495" fill="#333">0.8904</text><text x="162" y="539.0" text-anchor="end" font-family="ui-monospace,Menlo,Consolas,monospace">deep_large.xml</text><rect x="170" y="512" width="59.30" height="14" fill="#2F7DC1"/><text x="233.30" y="523" fill="#333">0.2213</text><rect x="170" y="528" width="62.83" height="14" fill="#7AAE5E"/><text x="236.83" y="539" fill="#333">0.2345</text><rect x="170" y="544" width="460.00" height="14" fill="#D08C3F"/><text x="634.00" y="555" fill="#333">1.717</text></svg>