<svg xmlns="http://www.w3.org/2000/svg" viewBox="0 0 700 592" role="img" aria-label="serialize 场景对比直方图" font-family="-apple-system,Segoe UI,Helvetica,Arial,sans-serif" font-size="11"><text x="170" y="16" font-size="13" font-weight="600">场景：serialize（条长按 fixture 内最大值归一，尾部为实际 ms/次）</text><rect x="170" y="21" width="12" height="10" fill="#2F7DC1"/><text x="186" y="30">CangjieXML</text><rect x="274" y="21" width="12" height="10" fill="#7AAE5E"/><text x="290" y="30">tinyxml2</text><rect x="362" y="21" width="12" height="10" fill="#D08C3F"/><text x="378" y="30">Python xml.etree</text><rect x="170" y="36" width="460" height="526" fill="#fafafa" stroke="#e0e0e0"/><text x="162" y="63.0" text-anchor="end" font-family="ui-monospace,Menlo,Consolas,monospace">catalog_small.xml</text><rect x="170" y="36" width="87.59" height="14" fill="#2F7DC1"/><text x="261.59" y="47" fill="#333">0.1986</text><rect x="170" y="52" width="20.21" height="14" fill="#7AAE5E"/><text x="194.21" y="63" fill="#333">0.0458</text><rect x="170" y="68" width="460.00" height="14" fill="#D08C3F"/><text x="634.00" y="79" fill="#333">1.043</text><text x="162" y="123.0" text-anchor="end" font-family="ui-monospace,Menlo,Consolas,monospace">catalog_medium.xml</text><rect x="170" y="96" width="91.69" height="14" fill="#2F7DC1"/><text x="265.69" y="107" fill="#333">10.249</text><rect x="170" y="112" width="28.54" height="14" fill="#7AAE5E"/><text x="202.54" y="123" fill="#333">3.190</text><rect x="170" y="128" width="460.00" height="14" fill="#D08C3F"/><text x="634.00" y="139" fill="#333">51.417</text><text x="162" y="183.0" text-anchor="end" font-family="ui-monospace,Menlo,Consolas,monospace">catalog_large.xml</text><rect x="170" y="156" width="90.32" height="14" fill="#2F7DC1"/><text x="264.32" y="167" fill="#333">60.891</text><rect x="170" y="172" width="23.60" height="14" fill="#7AAE5E"/><text x="197.60" y="183" fill="#333">15.914</text><rect x="170" y="188" width="460.00" height="14" fill="#D08C3F"/><text x="634.00" y="199" fill="#333">310.1</text><text x="162" y="243.0" text-anchor="end" font-family="ui-monospace,Menlo,Consolas,monospace">config_small.xml</text><rect x="170" y="216" width="97.31" height="14" fill="#2F7DC1"/><text x="271.31" y="227" fill="#333">0.0874</text><rect x="170" y="232" width="19.72" height="14" fill="#7AAE5E"/><text x="193.72" y="243" fill="#333">0.0177</text><rect x="170" y="248" width="460.00" height="14" fill="#D08C3F"/><text x="634.00" y="259" fill="#333">0.4132</text><text x="162" y="303.0" text-anchor="end" font-family="ui-monospace,Menlo,Consolas,monospace">config_medium.xml</text><rect x="170" y="276" width="81.92" height="14" fill="#2F7DC1"/><text x="255.92" y="287" fill="#333">3.473</text><rect x="170" y="292" width="20.88" height="14" fill="#7AAE5E"/><text x="194.88" y="303" fill="#333">0.8852</text><rect x="170" y="308" width="460.00" height="14" fill="#D08C3F"/><text x="634.00" y="319" fill="#333">19.500</text><text x="162" y="363.0" text-anchor="end" font-family="ui-monospace,Menlo,Consolas,monospace">config_large.xml</text><rect x="170" y="336" width="87.97" height="14" fill="#2F7DC1"/><text x="261.97" y="347" fill="#333">22.042</text><rect x="170" y="352" width="22.49" height="14" fill="#7AAE5E"/><text x="196.49" y="363" fill="#333">5.636</text><rect x="170" y="368" width="460.00" height="14" fill="#D08C3F"/><text x="634.00" y="379" fill="#333">115.3</text><text x="162" y="423.0" text-anchor="end" font-family="ui-monospace,Menlo,Consolas,monospace">deep_small.xml</text><rect x="170" y="396" width="41.68" height="14" fill="#2F7DC1"/><text x="215.68" y="407" fill="#333">0.0151</text><rect x="170" y="412" width="13.22" height="14" fill="#7AAE5E"/><text x="187.22" y="423" fill="#333">0.0048</text><rect x="170" y="428" width="460.00" height="14" fill="#D08C3F"/><text x="634.00" y="439" fill="#333">0.1665</text><text x="162" y="483.0" text-anchor="end" font-family="ui-monospace,Menlo,Consolas,monospace">deep_medium.xml</text><rect x="170" y="456" width="36.30" height="14" fill="#2F7DC1"/><text x="210.30" y="467" fill="#333">0.0579</text><rect x="170" y="472" width="12.02" height="14" fill="#7AAE5E"/><text x="186.02" y="483" fill="#333">0.0192</text><rect x="170" y="488" width="460.00" height="14" fill="#D08C3F"/><text x="634.00" y="499" fill="#333">0.7339</text><text x="162" y="543.0" text-anchor="end" font-family="ui-monospace,Menlo,Consolas,monospace">deep_large.xml</text><rect x="170" y="516" width="39.49" height="14" fill="#2F7DC1"/><text x="213.49" y="527" fill="#333">0.1170</text><rect x="170" y="532" width="12.83" height="14" fill="#7AAE5E"/><text x="186.83" y="543" fill="#333">0.0380</text><rect x="170" y="548" width="460.00" height="14" fill="#D08C3F"/><text x="634.00" y="559" fill="#333">1.363</text></svg>