<svg xmlns="http://www.w3.org/2000/svg" viewBox="0 0 700 574" role="img" aria-label="traverse" font-family="-apple-system,Segoe UI,Helvetica,Arial,sans-serif" font-size="11"><text x="170" y="14" font-size="12" font-weight="600">traverse</text><rect x="240" y="5" width="10" height="10" fill="#2F7DC1"/><text x="254" y="14">CangjieXML</text><rect x="336" y="5" width="10" height="10" fill="#7AAE5E"/><text x="350" y="14">tinyxml2</text><rect x="418" y="5" width="10" height="10" fill="#D08C3F"/><text x="432" y="14">Python xml.etree</text><rect x="170" y="32" width="460" height="526" fill="#fafafa" stroke="#e0e0e0"/><text x="162" y="59.0" text-anchor="end" font-family="ui-monospace,Menlo,Consolas,monospace">catalog_small.xml</text><rect x="170" y="32" width="201.45" height="14" fill="#2F7DC1"/><text x="375.45" y="43" fill="#333">0.0119</text><rect x="170" y="48" width="75.53" height="14" fill="#7AAE5E"/><text x="249.53" y="59" fill="#333">0.0044</text><rect x="170" y="64" width="460.00" height="14" fill="#D08C3F"/><text x="634.00" y="75" fill="#333">0.0271</text><text x="162" y="119.0" text-anchor="end" font-family="ui-monospace,Menlo,Consolas,monospace">catalog_medium.xml</text><rect x="170" y="92" width="209.99" height="14" fill="#2F7DC1"/><text x="383.99" y="103" fill="#333">0.5983</text><rect x="170" y="108" width="82.18" height="14" fill="#7AAE5E"/><text x="256.18" y="119" fill="#333">0.2341</text><rect x="170" y="124" width="460.00" height="14" fill="#D08C3F"/><text x="634.00" y="135" fill="#333">1.311</text><text x="162" y="179.0" text-anchor="end" font-family="ui-monospace,Menlo,Consolas,monospace">catalog_large.xml</text><rect x="170" y="152" width="460.00" height="14" fill="#2F7DC1"/><text x="634.00" y="163" fill="#333">8.747</text><rect x="170" y="168" width="145.13" height="14" fill="#7AAE5E"/><text x="319.13" y="179" fill="#333">2.760</text><rect x="170" y="184" width="446.97" height="14" fill="#D08C3F"/><text x="620.97" y="195" fill="#333">8.499</text><text x="162" y="239.0" text-anchor="end" font-family="ui-monospace,Menlo,Consolas,monospace">config_small.xml</text><rect x="170" y="212" width="130.36" height="14" fill="#2F7DC1"/><text x="304.36" y="223" fill="#333">0.0014</text><rect x="170" y="228" width="57.96" height="14" fill="#7AAE5E"/><text x="231.96" y="239" fill="#333">0.000635</text><rect x="170" y="244" width="460.00" height="14" fill="#D08C3F"/><text x="634.00" y="255" fill="#333">0.0050</text><text x="162" y="299.0" text-anchor="end" font-family="ui-monospace,Menlo,Consolas,monospace">config_medium.xml</text><rect x="170" y="272" width="215.66" height="14" fill="#2F7DC1"/><text x="389.66" y="283" fill="#333">0.1294</text><rect x="170" y="288" width="71.15" height="14" fill="#7AAE5E"/><text x="245.15" y="299" fill="#333">0.0427</text><rect x="170" y="304" width="460.00" height="14" fill="#D08C3F"/><text x="634.00" y="315" fill="#333">0.2760</text><text x="162" y="359.0" text-anchor="end" font-family="ui-monospace,Menlo,Consolas,monospace">config_large.xml</text><rect x="170" y="332" width="195.50" height="14" fill="#2F7DC1"/><text x="369.50" y="343" fill="#333">0.6800</text><rect x="170" y="348" width="95.44" height="14" fill="#7AAE5E"/><text x="269.44" y="359" fill="#333">0.3320</text><rect x="170" y="364" width="460.00" height="14" fill="#D08C3F"/><text x="634.00" y="375" fill="#333">1.600</text><text x="162" y="419.0" text-anchor="end" font-family="ui-monospace,Menlo,Consolas,monospace">deep_small.xml</text><rect x="170" y="392" width="233.58" height="14" fill="#2F7DC1"/><text x="407.58" y="403" fill="#333">0.0012</text><rect x="170" y="408" width="65.86" height="14" fill="#7AAE5E"/><text x="239.86" y="419" fill="#333">0.000349</text><rect x="170" y="424" width="460.00" height="14" fill="#D08C3F"/><text x="634.00" y="435" fill="#333">0.0024</text><text x="162" y="479.0" text-anchor="end" font-family="ui-monospace,Menlo,Consolas,monospace">deep_medium.xml</text><rect x="170" y="452" width="225.61" height="14" fill="#2F7DC1"/><text x="399.61" y="463" fill="#333">0.0050</text><rect x="170" y="468" width="55.19" height="14" fill="#7AAE5E"/><text x="229.19" y="479" fill="#333">0.0012</text><rect x="170" y="484" width="460.00" height="14" fill="#D08C3F"/><text x="634.00" y="495" fill="#333">0.0102</text><text x="162" y="539.0" text-anchor="end" font-family="ui-monospace,Menlo,Consolas,monospace">deep_large.xml</text><rect x="170" y="512" width="213.27" height="14" fill="#2F7DC1"/><text x="387.27" y="523" fill="#333">0.0098</text><rect x="170" y="528" width="54.90" height="14" fill="#7AAE5E"/><text x="228.90" y="539" fill="#333">0.0025</text><rect x="170" y="544" width="460.00" height="14" fill="#D08C3F"/><text x="634.00" y="555" fill="#333">0.0212</text></svg>