<svg xmlns="http://www.w3.org/2000/svg" viewBox="0 0 700 574" role="img" aria-label="traverse" font-family="-apple-system,Segoe UI,Helvetica,Arial,sans-serif" font-size="11"><text x="170" y="14" font-size="12" font-weight="600">traverse</text><rect x="240" y="5" width="10" height="10" fill="#2F7DC1"/><text x="254" y="14">CangjieXML</text><rect x="336" y="5" width="10" height="10" fill="#7AAE5E"/><text x="350" y="14">tinyxml2</text><rect x="418" y="5" width="10" height="10" fill="#D08C3F"/><text x="432" y="14">Python xml.etree</text><rect x="170" y="32" width="460" height="526" fill="#fafafa" stroke="#e0e0e0"/><text x="162" y="59.0" text-anchor="end" font-family="ui-monospace,Menlo,Consolas,monospace">catalog_small.xml</text><rect x="170" y="32" width="211.38" height="14" fill="#2F7DC1"/><text x="385.38" y="43" fill="#333">0.0117</text><rect x="170" y="48" width="80.72" height="14" fill="#7AAE5E"/><text x="254.72" y="59" fill="#333">0.0045</text><rect x="170" y="64" width="460.00" height="14" fill="#D08C3F"/><text x="634.00" y="75" fill="#333">0.0255</text><text x="162" y="119.0" text-anchor="end" font-family="ui-monospace,Menlo,Consolas,monospace">catalog_medium.xml</text><rect x="170" y="92" width="194.87" height="14" fill="#2F7DC1"/><text x="368.87" y="103" fill="#333">0.5534</text><rect x="170" y="108" width="80.39" height="14" fill="#7AAE5E"/><text x="254.39" y="119" fill="#333">0.2283</text><rect x="170" y="124" width="460.00" height="14" fill="#D08C3F"/><text x="634.00" y="135" fill="#333">1.306</text><text x="162" y="179.0" text-anchor="end" font-family="ui-monospace,Menlo,Consolas,monospace">catalog_large.xml</text><rect x="170" y="152" width="416.73" height="14" fill="#2F7DC1"/><text x="590.73" y="163" fill="#333">7.786</text><rect x="170" y="168" width="152.63" height="14" fill="#7AAE5E"/><text x="326.63" y="179" fill="#333">2.852</text><rect x="170" y="184" width="460.00" height="14" fill="#D08C3F"/><text x="634.00" y="195" fill="#333">8.594</text><text x="162" y="239.0" text-anchor="end" font-family="ui-monospace,Menlo,Consolas,monospace">config_small.xml</text><rect x="170" y="212" width="121.44" height="14" fill="#2F7DC1"/><text x="295.44" y="223" fill="#333">0.0014</text><rect x="170" y="228" width="56.07" height="14" fill="#7AAE5E"/><text x="230.07" y="239" fill="#333">0.000638</text><rect x="170" y="244" width="460.00" height="14" fill="#D08C3F"/><text x="634.00" y="255" fill="#333">0.0052</text><text x="162" y="299.0" text-anchor="end" font-family="ui-monospace,Menlo,Consolas,monospace">config_medium.xml</text><rect x="170" y="272" width="124.02" height="14" fill="#2F7DC1"/><text x="298.02" y="283" fill="#333">0.0739</text><rect x="170" y="288" width="70.86" height="14" fill="#7AAE5E"/><text x="244.86" y="299" fill="#333">0.0422</text><rect x="170" y="304" width="460.00" height="14" fill="#D08C3F"/><text x="634.00" y="315" fill="#333">0.2742</text><text x="162" y="359.0" text-anchor="end" font-family="ui-monospace,Menlo,Consolas,monospace">config_large.xml</text><rect x="170" y="332" width="460.00" height="14" fill="#2F7DC1"/><text x="634.00" y="343" fill="#333">2.676</text><rect x="170" y="348" width="56.99" height="14" fill="#7AAE5E"/><text x="230.99" y="359" fill="#333">0.3315</text><rect x="170" y="364" width="268.81" height="14" fill="#D08C3F"/><text x="442.81" y="375" fill="#333">1.564</text><text x="162" y="419.0" text-anchor="end" font-family="ui-monospace,Menlo,Consolas,monospace">deep_small.xml</text><rect x="170" y="392" width="247.43" height="14" fill="#2F7DC1"/><text x="421.43" y="403" fill="#333">0.0013</text><rect x="170" y="408" width="60.68" height="14" fill="#7AAE5E"/><text x="234.68" y="419" fill="#333">0.000317</text><rect x="170" y="424" width="460.00" height="14" fill="#D08C3F"/><text x="634.00" y="435" fill="#333">0.0024</text><text x="162" y="479.0" text-anchor="end" font-family="ui-monospace,Menlo,Consolas,monospace">deep_medium.xml</text><rect x="170" y="452" width="230.69" height="14" fill="#2F7DC1"/><text x="404.69" y="463" fill="#333">0.0050</text><rect x="170" y="468" width="57.23" height="14" fill="#7AAE5E"/><text x="231.23" y="479" fill="#333">0.0012</text><rect x="170" y="484" width="460.00" height="14" fill="#D08C3F"/><text x="634.00" y="495" fill="#333">0.0100</text><text x="162" y="539.0" text-anchor="end" font-family="ui-monospace,Menlo,Consolas,monospace">deep_large.xml</text><rect x="170" y="512" width="218.22" height="14" fill="#2F7DC1"/><text x="392.22" y="523" fill="#333">0.0098</text><rect x="170" y="528" width="56.30" height="14" fill="#7AAE5E"/><text x="230.30" y="539" fill="#333">0.0025</text><rect x="170" y="544" width="460.00" height="14" fill="#D08C3F"/><text x="634.00" y="555" fill="#333">0.0206</text></svg>